<?xml version="1.0" encoding="UTF-8"?>
<svg xmlns="http://www.w3.org/2000/svg" xmlns:xlink="http://www.w3.org/1999/xlink" viewBox="0 0 343.91 316.34">
  <defs>
    <style>
      .cls-1, .cls-2, .cls-3, .cls-4, .cls-5, .cls-6, .cls-7, .cls-8 {
        fill-rule: evenodd;
      }

      .cls-1, .cls-9, .cls-10 {
        fill: #7c3aed;
      }

      .cls-2 {
        fill: #edba32;
      }

      .cls-11 {
        clip-path: url(#clippath-4);
      }

      .cls-12 {
        fill: url(#linear-gradient-2);
      }

      .cls-13 {
        mask: url(#mask-1);
      }

      .cls-3 {
        fill: #810000;
        opacity: .31;
      }

      .cls-14 {
        mask: url(#mask);
      }

      .cls-15 {
        fill: #38006e;
      }

      .cls-15, .cls-16, .cls-17 {
        mix-blend-mode: multiply;
      }

      .cls-15, .cls-17, .cls-6 {
        opacity: .38;
      }

      .cls-18 {
        stroke: #400f62;
      }

      .cls-18, .cls-19, .cls-20, .cls-21, .cls-22 {
        fill: none;
      }

      .cls-18, .cls-19, .cls-9, .cls-22, .cls-23 {
        stroke-linecap: round;
        stroke-linejoin: round;
      }

      .cls-18, .cls-22 {
        stroke-width: 4px;
      }

      .cls-16 {
        fill: #b25df7;
        opacity: .27;
      }

      .cls-19, .cls-9, .cls-22, .cls-23 {
        stroke: #030f44;
      }

      .cls-19, .cls-9, .cls-23 {
        stroke-width: 2px;
      }

      .cls-24 {
        fill: #66fbff;
      }

      .cls-25 {
        fill: url(#linear-gradient-4);
      }

      .cls-26 {
        fill: url(#linear-gradient-3);
      }

      .cls-27 {
        clip-path: url(#clippath-1);
      }

      .cls-28 {
        fill: url(#linear-gradient-5);
      }

      .cls-29 {
        isolation: isolate;
      }

      .cls-30 {
        fill: #3b82f6;
      }

      .cls-4 {
        fill: #170987;
        opacity: .37;
      }

      .cls-31 {
        clip-path: url(#clippath-3);
      }

      .cls-32 {
        fill: #400f62;
      }

      .cls-17 {
        fill: #ce00a2;
      }

      .cls-21 {
        clip-rule: evenodd;
      }

      .cls-5 {
        fill: #aa83ff;
      }

      .cls-33 {
        fill: url(#linear-gradient-6);
      }

      .cls-6 {
        fill: #fff;
      }

      .cls-7, .cls-34 {
        fill: #030f44;
      }

      .cls-35 {
        clip-path: url(#clippath-2);
      }

      .cls-36 {
        fill: url(#linear-gradient);
      }

      .cls-37 {
        clip-path: url(#clippath);
      }

      .cls-8 {
        fill: #ff006e;
      }

      .cls-23 {
        fill: #43a1ff;
        filter: url(#drop-shadow-1);
      }
    </style>
    <filter id="drop-shadow-1" x="8.74" y="3.73" width="329.86" height="310.48" filterUnits="userSpaceOnUse">
      <feOffset dx="2" dy="2"/>
      <feGaussianBlur result="blur" stdDeviation="0"/>
      <feFlood flood-color="#00347f" flood-opacity=".9"/>
      <feComposite in2="blur" operator="in"/>
      <feComposite in="SourceGraphic"/>
    </filter>
    <clipPath id="clippath">
      <path class="cls-21" d="M151.46,68.64c7.17-.02,14.31-.04,21.42-.05,7.11.01,14.25.03,21.42.05,7.18.02,14.39.05,21.62.08h.02c3.66.06,7.24.86,10.52,2.3,3.29,1.44,6.29,3.54,8.81,6.19.73.77,1.42,1.59,2.05,2.44,4.2,5.65,6.1,12.89,5.67,19.92-.43,7.06-3.21,13.94-8.37,18.85-.71.68-1.48,1.33-2.29,1.93-3.95,2.93-8.88,5.16-13.76,5.76-4.29.53-8.56-.19-12.15-2.77-6.11-4.4-11.94-7.78-17.55-10.06-5.55-2.25-10.86-3.43-15.99-3.44-5.13.02-10.44,1.19-15.98,3.44-5.61,2.28-11.44,5.66-17.55,10.06-3.58,2.58-7.85,3.3-12.15,2.77-4.88-.6-9.81-2.83-13.75-5.76-.81-.6-1.58-1.25-2.29-1.93-5.16-4.91-7.94-11.79-8.37-18.85-.43-7.03,1.47-14.27,5.67-19.92.63-.85,1.32-1.67,2.05-2.44,2.52-2.65,5.52-4.75,8.81-6.19,3.28-1.44,6.85-2.24,10.52-2.3h.02c7.23-.03,14.44-.06,21.62-.08"/>
    </clipPath>
    <linearGradient id="linear-gradient" x1="172.88" y1="165.26" x2="172.88" y2="92.27" gradientUnits="userSpaceOnUse">
      <stop offset="0" stop-color="#5700c6"/>
      <stop offset="1" stop-color="#64affa"/>
    </linearGradient>
    <clipPath id="clippath-1">
      <path class="cls-20" d="M151.23,75.24c7.22-.03,14.43-.04,21.65-.05,7.22,0,14.43.02,21.65.05,7.22.03,14.44.06,21.65.11,2.76.02,5.43.62,7.89,1.7,2.5,1.1,4.78,2.71,6.69,4.72.54.57,1.05,1.18,1.52,1.81,3.19,4.3,4.68,9.92,4.4,15.39-.29,5.5-2.37,10.87-6.33,14.63-.52.5-1.08.97-1.67,1.41-2.44,1.81-6.13,3.72-9.78,4.38-2.94.53-5.87.27-8.23-1.43-6.43-4.63-12.82-8.35-19.16-10.92-6.28-2.54-12.49-3.95-18.62-3.98-6.13.03-12.34,1.44-18.62,3.98-6.34,2.57-12.73,6.29-19.16,10.92-2.36,1.7-5.3,1.96-8.23,1.43-3.65-.66-7.34-2.57-9.78-4.38-.59-.44-1.15-.91-1.68-1.41-3.96-3.76-6.04-9.13-6.33-14.63-.29-5.47,1.21-11.09,4.4-15.39.47-.63.98-1.24,1.52-1.81,1.91-2.01,4.19-3.62,6.69-4.72,2.45-1.08,5.13-1.68,7.89-1.7,7.21-.05,14.43-.09,21.65-.11"/>
    </clipPath>
    <linearGradient id="linear-gradient-2" x1="172.88" y1="120.71" x2="172.88" y2="57.68" gradientUnits="userSpaceOnUse">
      <stop offset="0" stop-color="#73cafc"/>
      <stop offset="1" stop-color="#5700c6"/>
    </linearGradient>
    <clipPath id="clippath-2">
      <path class="cls-20" d="M233.31,94.53c.01.54,0,1.07-.03,1.61-.27,4.84-2.23,9.57-5.96,12.88-.49.44-1.02.85-1.58,1.24-2.3,1.59-5.77,3.28-9.21,3.86-2.76.47-5.53.24-7.75-1.26-6.06-4.08-12.07-7.35-18.04-9.61-5.91-2.24-11.76-3.47-17.53-3.5-5.77.03-11.62,1.26-17.53,3.5-5.97,2.26-11.98,5.53-18.04,9.61-2.22,1.49-4.99,1.73-7.75,1.26-3.44-.58-6.91-2.26-9.21-3.86-.56-.39-1.08-.8-1.58-1.24-3.73-3.31-5.69-8.04-5.96-12.88-.03-.55-.04-1.1-.03-1.66,40-2.96,80.17-2.94,120.17.05"/>
    </clipPath>
    <linearGradient id="linear-gradient-3" x1="924.72" y1="544.14" x2="924.72" y2="558.04" gradientTransform="translate(-751.49 -453.58)" gradientUnits="userSpaceOnUse">
      <stop offset="0" stop-color="gray"/>
      <stop offset="1" stop-color="#000"/>
    </linearGradient>
    <mask id="mask" x="113.13" y="91.52" width="120.19" height="23.06" maskUnits="userSpaceOnUse">
      <rect class="cls-26" x="113.14" y="92.27" width="120.18" height="22.05"/>
    </mask>
    <linearGradient id="linear-gradient-4" x1="173.23" y1="90.57" x2="173.23" y2="104.46" gradientUnits="userSpaceOnUse">
      <stop offset="0" stop-color="#fff"/>
      <stop offset="1" stop-color="#5700c6"/>
    </linearGradient>
    <clipPath id="clippath-3">
      <path class="cls-21" d="M203.9,76.76l-12.77,28.56c4.44,1.72,8.9,4.01,13.39,6.77l15.56-34.8c-1.27-.29-2.58-.44-3.9-.45-4.09-.03-8.19-.05-12.28-.07M161.4,76.69l-14.35,32.09c2.39-1.25,4.77-2.35,7.14-3.29l12.88-28.81c-1.89,0-3.78,0-5.68.01ZM134.51,116.58l17.83-39.87c-5.1.02-10.19.04-15.29.07l-17.14,38.33c4.22,2.51,10.37,4.51,14.34,1.66.09-.06.18-.13.27-.19ZM225.95,79.72l-16.05,35.9c.54.38,1.08.76,1.63,1.15.71.51,1.48.86,2.31,1.09l15.74-35.2c-1.09-1.13-2.31-2.12-3.62-2.94Z"/>
    </clipPath>
    <linearGradient id="linear-gradient-5" x1="928.44" y1="489.46" x2="913.54" y2="568.78" gradientTransform="translate(-743.04 -448.77)" gradientUnits="userSpaceOnUse">
      <stop offset="0" stop-color="#fff"/>
      <stop offset="1" stop-color="#141414"/>
    </linearGradient>
    <mask id="mask-1" x="119.9" y="76.68" width="109.67" height="42.95" maskUnits="userSpaceOnUse">
      <rect class="cls-28" x="119.9" y="76.68" width="109.67" height="41.49"/>
    </mask>
    <linearGradient id="linear-gradient-6" x1="185.52" y1="40.71" x2="170.63" y2="120.03" gradientUnits="userSpaceOnUse">
      <stop offset="0" stop-color="#fff"/>
      <stop offset="1" stop-color="#fff"/>
    </linearGradient>
    <clipPath id="clippath-4">
      <path class="cls-9" d="M325.06,302.05c-96.24-36.48-198.08-35.03-304.92.25-1.96.65-3.94-.93-3.94-3.15v-83.3c0-1.62,1.09-3.01,2.57-3.27,107.38-18.7,210.36-20.11,307.87-.06,1.44.3,2.48,1.67,2.48,3.26v83.17c0,2.28-2.08,3.86-4.06,3.11Z"/>
    </clipPath>
  </defs>
  <g class="cls-29">
    <g id="TEXTS">
      <g>
        <g>
          <path class="cls-23" d="M335.6,211.16v96.77c0,2.17-2.19,3.64-4.21,2.81-100.24-40.92-206.31-39.3-317.58.29-1.98.71-4.07-.75-4.07-2.86v-97.02c0-1.47,1.05-2.74,2.49-3.01,11.81-2.22,23.57-4.2,35.29-5.98-17.48-15.68-11.52-40.47-11.52-40.47.51-1.98,1.75-4.87,2.8-7.14,1.29-2.79,3.01-5.38,5.2-7.55.51-.5,1.35-1.25,2.16-1.9,1.06-.85,2.6-.67,3.44.4,1.09,1.4,2.48,3.26,2.75,3.93,10.87-19.43,20.17-27.37,29.88-32.73-6.51-3.72-27.89-17.27-33.45-41.5C40.76,40.34,65.96,4.43,103.4,5.79c38.54,1.4,50.05,24.83,50.05,24.83,12.63-5.47,27.05-5.26,40.94-1.64,0,0,16.53-24.21,43.64-24.21,41.7-1.19,53.52,24.41,56.51,31.83,10.21,25.36,0,61.4-20.85,67.7.82-.02,8.9.66,9.78.89,19.97,5.36,26.34,12.63,30.95,27.57,5.23,16.98,3.7,18.38,3.85,23.84.12,4.62-1.21,9.12-5.73,10.07-.71.15-1.42.22-2.13.22-1.08,0-2.13-.17-3.14-.49-8.46,11.55-30.75,28.74-39.15,30.68,21.95,2.65,43.64,6.33,65.1,11.08,1.4.32,2.39,1.56,2.39,2.99Z"/>
          <path class="cls-16" d="M335.6,211.16v96.77c0,2.17-2.19,3.64-4.21,2.81-100.24-40.92-206.31-39.3-317.58.29-1.98.71-4.07-.75-4.07-2.86v-97.12c0-1.47,1.05-2.74,2.49-3.01,11.81-2.22,23.57-4.2,35.29-5.98-5.56-6.99-9.92-8.98-11.52-19.24-3.57-22.95,3.26-28.81,3.66-29.79.9-2.19,5.53-9.53,8.57-8.39,34.67,33.75,64.73,35.86,122.34,35.86,65.36,0,107.76-5.62,147.5-38.42.84,4.73.72,7.8.32,13.25-.34,4.61-1.37,10.41-5.9,11.37-.71.15-1.42.22-2.13.22-1.08,0-2.13-.17-3.14-.49-5.36,6.8-6.22,7.09-20.63,19.76-4.93,3.64-11.07,8.5-18.46,10.9,21.95,2.65,43.64,6.33,65.1,11.08,1.4.32,2.39,1.56,2.39,2.99Z"/>
        </g>
        <g>
          <path class="cls-7" d="M254.3,202.64c-.32.68,21.18,1.17,20.85,1.84-.97-.38-2.32-1.24-3.06-1.69-.81.46-.16.02-.77.91-.75-.28-.64-.47-1.55-.75-.4.42-.82.95-1.3,1.32l-2.28-1.89-.79,1.67c-2.5.4-4.09-.41-5.27-1.71l-.65,1.53c-.74-.78-1.84-2.04-2.57-2.68l-.61.49c-.37.32.09,0-.42.41l-3.68-1.36c.37,3.45,4.79,5.75,6.98,8.03,3.65,3.79,4.84,2.64,8.92,4.46.28.12.57.26.87.42.24.12.51.27.8.43-.8,1.27-1.61,2.53-2.46,3.77l-.88.69c-.85-.49-1.54-1.52-2.45-1.47-.66,1.66.38.75.54,2.04-1.76-.45-3.77-.82-5.56-1.03-2.88-.33-2.63-1.08-4.11-2.67-.52.39-.56.47-.98,1.13l-3.68-1.35.22,2.47-4.83-1.51.98,2.63-.97.46c-.29-.37-.65-1.25-.84-1.43-.63-.59-.34-.03-1.34-.27-1.17-.29-1.1-1.5-1.94-2.38-.83.37-.58.41-1.32,1.03l.44,1.93-.58.7c-.98-.28-1.13-.64-1.61-1.53l-1.64.73c-.81-.91-2.06-3.21-3.6-3.28-1.75-.08.21.09-1.23.61-1.16-.69-1.71-1.46-2.39-2.12-.54-.53-1.16-.99-2.23-1.31-.17.25-.3.71-.4,1.31-.27,1.59-.35,4.15-.51,6.19-.5,6.65.26,4.72.32,7.29-1.73,1.56-5.09,1.75-7.49,1.18-.09-1.32.11-3.5-.42-4.46-.6,1.02-.07,3.13-.34,4.49l-2.92-.04.82-14.14c-.27-.25-.44-.4-.61-.53-.2-.15-.42-.26-.83-.47l-.88.47-5.11,2.71-.45-1.75c-4.48,2.25-1.55,1.43-3.05,3.08-.66.73-1.18.42-1.9.09-.26.89-.03.47-.74,1.32-.83-.4-1.58-1.06-2.38-.52l-1.75-.55-2.92,2.31c-.15-.53-.17-.66-.48-1.27l-.67-1.02-3.08,1.93s-.11-.1-.13-.13l-.9-.9c-1.15.53-2.17,1.25-3.29,1.87-2.38,1.32-.28-.76-3.52.52l-.03-2.75c-.45.01-10.7,2.67-13.31,3.02.65-1.2,1.82-2.05,2.85-2.96,1.36-1.2,1.17-1.55,3.38-1.97,1.27-.24,2.77-1.66,4.04-3,.72-.76,1.37-1.5,1.85-1.98,2.33-2.31,4.87-4.38,7.1-6.8,1.21-1.31,3.03-2.37,4.19-3.77l-1.97-.54c-1.3,1.08-2.84,3.37-4.17,4.64l-1.5-1.19c-1.75.38-7.27,3.42-9.22,4.42-3.55,1.82-2.1.93-4.97,1.74-1.67.47-2.54,1.98-4.3,2.28.2-.62,1.25-1.69,1.79-2.49,1.59-2.37,3.11-6.81,4.73-8.4,2.35-2.31,4,.1,5.51-3.21,1.42-3.12,18.55-16.21,20.77-22.83-2.07.65-1.16-.15-2.33,1.31-.46.58-1.42,1.32-2.54,1.6-2.73.7-2.48-.44-4.3,2.12l-1.06,1.2-2-1.42c.7-1.51,4.99-6.02,5.19-6.98-.21-1.2-.94-1.39-.56-2.76.4-1.45,4.68-5.55,6.03-7.16,1.44-1.72,3.04-3.81,3.29-6.29-.99.27-1.89.93-2.64,1.49-.04-.05-.08-.12-.1-.15l-.4-.77c-3.32,2.58-4.58,2.31-8.13,3.66-2.33.89-6.32,2.59-8.63,3.08,1.16-2.73,5.13-7.53,7.02-10.08,1.19-1.6,2.57-3.21,3.8-4.7.8-.97,3.46-3.56,3.46-4.51-2.4-.27-11.22,2.52-14.6,2.79l.96-.75c2.03-1.15,4.17-3.2,5.41-3.86,2.16-1.14,1.98.41,3.38-2.01,1.94-3.36,5.1-5.62,7.82-8.15,1.56-1.45,4.7-3.63,5.04-5.84l-3.75,1.38c-.77-1.59.02-1.99-2.3-1.9-1.34.06-2.76.23-4.13-.15l-.06-1.57c2.48-1.53,3.52-.76,9.1-4.76,1.84-1.32,6.78-4.34,7.66-5.93-1.32-.1-2.24.2-3.39-.22-.45-1.16-.15-1.44.49-2.23l3.9-5.11c1.68-2.31,3.36-4.62,4.83-7.27.34-.61.66-1.22.98-1.82,1.07-2.05,2.02-4.07,2.97-6.34.71-1.69,2.72-7.5,3.64-8.54l1.54.1c.86,1.92,1.37,8.38,2.19,11.19.38,1.29.94,2.48,1.64,3.6,4.46,7.14,14.4,11.13,16.48,17.93-1.12-.66-1.58-1.09-2.53-1.85-1.79-1.43-1.34.11-3.16-.43-2.01-.6-4.06-2.05-6.23-2.52.66,1.63,2.49,3.11,3.51,4.46,3.34,4.46,10.79,8.81,5.21,12.81-.31.22-.28.19-.49.38l1.05,3.01c-1.48-.84-3.83-3.52-5.06-4,.16,1.23,4.49,6.15,5.45,7.38,2.47,3.19,2.76,3.76,6.76,5.86,3.34,1.75,4.98,2.55,7.42,5.46l4.46,5.07c.59.75.77,1.19.55,2.4-1.86,1.11-4.33-.13-6.68-.17-1.47-.02-1.35.75-3.18.11-.96-.33-1.7-.89-2.67-1.12l-1.03,1.06c-1.5-.48-2.45-2.19-3.77-2.36.46,1.21,5.43,6.82,6.61,8.18,3.68,4.2,6.72,7.73,10.8,11.34.76.67,1.32,1.06,2.1,1.77,1.64,1.49,9.08,4.94,9.86,6.38-.33.23.02.31-.51.46-.16.05-1.47.43-1.49.44-.01,0-1.02.83-1.19.85-.19.02.32.7.11.68-1.78-.11-2.64-.58-4.06-1.48l-5.4-3.35-1.14,1.18c-2.66-.69-5.06-2.43-7.06-4.07-.25-.2-2.77-1.7-2.61-.32.37,3.1,13.06,8.37,15.99,10.42.62.44-2.4,1.03-2.21,1.53-2.56.5-1.06,1-2.89.14-.28.38-.6,1.07-.85,1.58l-1.72-.16-.51,1.02c-1.1-.65-5.15-3.1-6.06-3.08.13,1.03,3.13,2.75,4.07,3.43.71.51.83.56,1.22,1.18-.86.85-4.15.29-4.57,1.5l-.09,12.17ZM199.17,213.23c-.38.72-.96,1.24-1.31,1.89l-.97-.47c-.9.72-3.16,2.64-4.19,2.89.29-1.37,2.45-2.72,3.3-3.54.27-.26.52-.52.77-.77.92-.92,1.74-1.73,2.72-2.17.16.94-.02,1.61-.31,2.17Z"/>
          <path class="cls-7" d="M78.19,217.45c-.68-1.01-1.34-2.03-1.99-3.06.49-.29.95-.55,1.33-.75.31-.15.6-.29.87-.42,4.08-1.83,5.27-.68,8.92-4.46,2.2-2.27,6.61-4.58,6.98-8.03l-3.68,1.36c-.51-.42-.06-.09-.42-.41l-.61-.49c-.73.64-1.84,1.9-2.58,2.68l-.65-1.53c-1.18,1.3-2.78,2.11-5.27,1.71l-.79-1.67-2.28,1.89c-.48-.37-.9-.91-1.3-1.32-.91.29-.8.47-1.55.75-.61-.89.04-.45-.77-.91-.89.54-1.19-.9-2.12-.73l-2.47-.22,19.01-11.38c-.42-1.2-.43-.64-1.29-1.49.38-.62.51-.67,1.22-1.18.94-.68,3.95-2.4,4.07-3.43-.91-.01-4.96,2.43-6.06,3.08l-.52-1.02-1.72.16c-.25-.52-.57-1.21-.85-1.58-1.82.86-2.81,1.46-5.37.96.18-.5.18-.42.8-.85,2.93-2.05,15.1-9.1,15.46-12.2.16-1.37-2.36.12-2.61.32-2,1.64-4.4,3.38-7.06,4.07l-1.14-1.18-5.4,3.35c-1.42.9-3.2,1.47-4.98,1.58-.21.01-.85.03-1.04,0-.18-.02-.23-.02-.25-.02-.02,0-.08-.03-.23-.07-.53-.15-.31-.06-.64-.3.78-1.44,8.21-7.04,9.86-8.53.78-.71,1.34-1.1,2.1-1.77,4.07-3.61,7.12-7.15,10.8-11.34,1.19-1.35,6.15-6.97,6.61-8.18-1.32.17-2.27,1.87-3.77,2.36l-1.03-1.06c-.96.23-1.7.78-2.67,1.12-1.83.63-1.71-.14-3.18-.11-2.35.04-4.82,1.28-6.68.17-.22-1.21-.04-1.65.55-2.4l4.46-5.07c2.44-2.91,4.08-3.7,7.42-5.46,4-2.1,4.28-2.67,6.76-5.86.96-1.24,5.3-6.15,5.45-7.38-1.23.47-3.57,3.16-5.06,4l1.05-3.01c-.21-.19-.18-.16-.49-.38-5.58-3.99,1.87-8.35,5.21-12.81,1.01-1.35,2.85-2.84,3.51-4.46-2.17.48-4.22,1.93-6.23,2.52-1.81.54-1.37-1-3.16.43-.95.76-1.41,1.19-2.53,1.85,2.08-6.8,12.02-10.79,16.48-17.93.7-1.11,1.26-2.31,1.64-3.6.82-2.81,1.33-9.27,2.19-11.19l1.54-.1c.91,1.04,2.93,6.85,3.64,8.54.95,2.28,1.9,4.3,2.97,6.34.31.6.64,1.2.98,1.82,1.47,2.65,3.15,4.96,4.83,7.27l3.9,5.11c.64.79.94,1.06.49,2.23-1.14.42-2.07.13-3.39.22.88,1.58,5.82,4.61,7.66,5.93,5.58,4,6.62,3.23,9.1,4.76l-.06,1.57c-1.37.38-2.79.21-4.13.15-2.32-.09-1.52.31-2.3,1.9l-3.75-1.38c.34,2.21,3.48,4.38,5.04,5.84,2.72,2.53,5.88,4.8,7.82,8.15,1.4,2.42,1.22.87,3.38,2.01,1.24.65,3.38,2.71,5.41,3.86l.96.75c-3.38-.27-12.2-3.06-14.6-2.79,0,.95,2.66,3.54,3.46,4.51,1.23,1.49,2.61,3.1,3.8,4.7,1.89,2.55,5.86,7.35,7.02,10.08-2.31-.49-6.3-2.19-8.63-3.08-3.55-1.35-4.82-1.08-8.13-3.66l-.4.77s-.06.1-.1.15c-.75-.56-1.66-1.22-2.64-1.49.25,2.48,1.86,4.57,3.29,6.29,1.35,1.62,5.63,5.71,6.03,7.16.38,1.37-.35,1.56-.56,2.76.19.96,4.49,5.47,5.19,6.98l-2,1.42-1.06-1.2c-1.82-2.56-1.57-1.42-4.3-2.12-1.11-.29-2.07-1.03-2.54-1.6-1.17-1.45-.26-.66-2.33-1.31,2.22,6.62,19.34,19.72,20.76,22.83,1.51,3.31,3.16.9,5.51,3.21,1.62,1.59,3.15,6.03,4.73,8.4.54.81,1.59,1.88,1.79,2.49-1.76-.31-2.63-1.82-4.3-2.28-2.87-.81-1.42.08-4.97-1.74-1.95-1-7.47-4.04-9.22-4.42l-1.5,1.19c-1.33-1.27-2.87-3.56-4.17-4.64l-1.97.54c1.16,1.4,2.98,2.46,4.19,3.77,2.23,2.42,4.77,4.49,7.1,6.8.49.48,1.13,1.22,1.85,1.98,1.27,1.34,2.77,2.76,4.04,3,2.21.42,2.02.77,3.38,1.97,1.03.91,2.2,1.76,2.86,2.96-2.6-.34-12.85-3.01-13.31-3.02l-.03,2.75c-3.25-1.28-1.15.8-3.53-.52-1.12-.62-2.14-1.34-3.29-1.87l-.9.9s-.09.09-.13.13l-3.08-1.93-.67,1.02c-.31.61-.33.74-.48,1.27l-2.92-2.31-1.75.55c-.8-.54-1.55.12-2.38.52-.71-.85-.48-.43-.74-1.32-.72.33-1.25.64-1.9-.09-1.49-1.65,1.43-.83-3.05-3.08l-.45,1.75-5.11-2.71-.88-.47c-.41.21-.63.32-.83.47-.17.12-.34.28-.61.53l.82,14.14-2.92.04c-.27-1.36.26-3.47-.34-4.49-.53.96-.33,3.14-.43,4.46-2.4.57-5.76.37-7.49-1.18.07-2.57.82-.64.32-7.29-.15-2.05-.24-4.6-.51-6.19-.1-.6-.23-1.06-.4-1.31-1.07.31-1.69.78-2.22,1.31-.68.67-1.23,1.43-2.39,2.12-1.44-.52.52-.69-1.23-.61-1.55.07-2.8,2.37-3.6,3.28l-1.64-.73c-.48.9-.63,1.25-1.61,1.53l-.58-.7.44-1.93c-.74-.62-.48-.66-1.32-1.03-.84.88-.77,2.09-1.94,2.38-.99.24-.71-.31-1.34.27-.19.18-.56,1.06-.85,1.43l-.97-.46.98-2.63-4.83,1.51.22-2.47-3.68,1.35c-.43-.66-.46-.74-.99-1.13-1.48,1.59-1.24,2.34-4.11,2.67-1.8.2-3.81.58-5.56,1.03.16-1.29,1.2-.38.54-2.04-.91-.06-1.6.98-2.45,1.47l-1.49-1.16-.39.07ZM147.31,213.23c.38.72.96,1.24,1.31,1.89l.97-.47c.9.72,3.16,2.64,4.19,2.89-.29-1.37-2.45-2.72-3.3-3.54-.27-.26-.53-.52-.77-.77-.92-.92-1.74-1.73-2.72-2.17-.16.94.02,1.61.31,2.17Z"/>
          <path class="cls-9" d="M107.03,113.93s-53.16,21.26-52.54,55.82l-5.92-14.58s-27.09,65.96,86.25,47.28c0,0-42.97-.03-60.72-16.19,0,0,19.62,6.23,30.52,3.43-33.74-10.27-43.98-26.89-11.02-53.57,1.23-1,2.57-1.87,3.99-2.58l11.81-5.94-2.36-13.66Z"/>
          <path class="cls-15" d="M109.22,112.21s-12.11,3.91-15.28,8.08c-.69,3.76-.18,7.67.57,11.38.34,1.7.75,3.38,1.17,5.06,1.91-3.19,9.62-5.56,12.52-7.83l1.02-16.68Z"/>
          <path class="cls-9" d="M243.55,112.82c.12.31,62.71-8.55,58.97,43.14,0,0-4.67-8.91-8.41-10.69,0,0,5.65,44.94-96.98,63,66.63-28.74,105.71-56.23,56.5-79.76,0,0,14.63-3.58,22.11,2.9,0,0-12.07-8.29-28.64-9.03l-3.55-9.56Z"/>
          <path class="cls-17" d="M258.94,125.2c-.06-3.53-.21-10.35-1.07-13.73-4.64.08-7.74.05-7.77-.02l3.41,12.64c1.82.08,3.73.86,5.43,1.11Z"/>
        </g>
        <g>
          <path class="cls-2" d="M201.49,164.16h0c23-4.6,37.8-14.9,45.71-27.75h0c8.72,4.45,5.98,15.8-.86,20.85,5.85,3.7,5.09,7.89-2.28,12.58,19.69,26.94,24.45,46.66,14.29,59.13-.51.58-1.02,1.15-1.54,1.72-2.99,3.04-6.96,5.61-11.94,7.69l.46,3.2c-17.76,14.66-39.69,23.76-63.01,25.8-3.15.21-6.3.32-9.45.32-4.98,0-9.97-.26-14.93-.79-21.25-2.69-41.19-11.28-57.64-24.57l.57-3.95c-25.17-10.52-24.9-33.37.8-68.54-7.37-4.69-8.13-8.89-2.28-12.58-6.84-5.05-9.57-16.4-.86-20.85h0c7.91,12.84,22.71,23.14,45.71,27.74h0c11.05,2.35,21.06,8.14,28.61,16.54,7.54-8.4,17.56-14.19,28.61-16.53"/>
          <path class="cls-5" d="M172.88,166.76c-60.88,0-83.93-29.85-81.2-60.84h0c-16.11-6.19-26.1-22.38-24.42-39.56,0,0-.94,2.23-2.81,6.69-3.71-20.9,8.01-41.48,27.88-48.95,19.87-7.47,42.24.3,53.21,18.48h0c8.37-2.87,17.53-4.61,27.34-4.87,9.81.27,18.97,2,27.34,4.88h0c10.97-18.18,33.34-25.95,53.21-18.48,19.87,7.47,31.59,28.04,27.88,48.95-1.87-4.46-2.81-6.69-2.81-6.69,1.68,17.18-8.31,33.37-24.42,39.56h0c2.74,30.98-20.31,60.83-81.2,60.83"/>
          <g class="cls-37">
            <rect class="cls-36" x="102.35" y="68.59" width="141.07" height="58.05"/>
          </g>
          <g class="cls-27">
            <rect class="cls-12" x="108.8" y="75.19" width="128.16" height="44.74"/>
          </g>
          <path class="cls-8" d="M129.71,49.59c-18.47,10.54-31.73,28.28-36.6,48.98-9.14-6.4-14.07-17.26-12.87-28.35,1.2-11.09,8.34-20.65,18.64-24.94,10.29-4.29,22.11-2.64,30.83,4.31"/>
          <path class="cls-8" d="M216.05,49.59c18.47,10.54,31.73,28.28,36.6,48.98,9.14-6.4,14.07-17.26,12.87-28.35-1.2-11.09-8.34-20.65-18.64-24.94-10.3-4.29-22.11-2.64-30.83,4.31"/>
          <path class="cls-34" d="M180.9,118.96c-2.15,1.36-4.95,2.37-8.01,2.37s-5.86-1.01-8.01-2.37c-2.85-1.8-4.65-4.37-4.65-6.29,0-.83.28-1.61.79-2.32.4-.56.97-1.07,1.67-1.53.2-.16.43-.27.69-.33,1.61-.38,3.2-.67,4.79-.87,1.55-.19,3.13-.29,4.73-.3,1.6,0,3.18.11,4.73.3,1.58.2,3.18.49,4.79.87h0c.18.05.36.12.53.23.77.48,1.39,1.03,1.83,1.63.52.71.79,1.49.79,2.32,0,1.92-1.8,4.49-4.65,6.29"/>
          <g class="cls-35">
            <g class="cls-14">
              <rect class="cls-25" x="113.13" y="91.52" width="120.19" height="23.06"/>
            </g>
          </g>
          <g class="cls-31">
            <g class="cls-13">
              <rect class="cls-33" x="119.9" y="76.68" width="109.67" height="42.95"/>
            </g>
          </g>
          <path class="cls-1" d="M145.54,164.44c20.37,3.06,38.51,3.06,54.41.01-12.38,3.85-21.41,9.26-27.07,16.24-5.5-6.9-14.61-12.32-27.34-16.25"/>
          <path class="cls-34" d="M151.23,75.24c7.22-.03,14.43-.04,21.65-.05,7.22,0,14.43.02,21.65.05,7.22.03,14.44.06,21.65.11,2.76.02,5.43.62,7.89,1.7,2.5,1.1,4.78,2.71,6.69,4.72.54.57,1.05,1.18,1.52,1.81,3.19,4.3,4.68,9.92,4.4,15.39-.29,5.5-2.37,10.87-6.33,14.63-.52.5-1.08.97-1.67,1.41-2.44,1.81-6.13,3.72-9.78,4.38-2.94.53-5.87.27-8.23-1.43-6.43-4.63-12.82-8.35-19.16-10.92-6.28-2.54-12.49-3.95-18.62-3.98-6.13.03-12.34,1.44-18.62,3.98-6.34,2.57-12.73,6.29-19.16,10.92-2.36,1.7-5.3,1.96-8.23,1.43-3.65-.66-7.34-2.57-9.78-4.38-.59-.44-1.15-.91-1.68-1.41-3.96-3.76-6.04-9.13-6.33-14.63-.29-5.47,1.21-11.09,4.4-15.39.47-.63.98-1.24,1.52-1.81,1.91-2.01,4.19-3.62,6.69-4.72,2.45-1.08,5.13-1.68,7.89-1.7,7.21-.05,14.43-.09,21.65-.11M172.88,78.15c-7.22,0-14.43.02-21.65.05-7.21.03-14.42.06-21.64.11-2.33.02-4.6.53-6.71,1.46-2.14.95-4.1,2.32-5.74,4.05-.46.48-.89,1-1.29,1.53-2.77,3.74-4.07,8.67-3.82,13.48.25,4.78,2.03,9.43,5.41,12.64.44.42.91.81,1.4,1.18,2.15,1.6,5.38,3.28,8.54,3.85,2.21.4,4.36.24,5.98-.92,6.63-4.78,13.23-8.62,19.78-11.27,6.61-2.68,13.18-4.16,19.72-4.19h.01c6.54.03,13.12,1.51,19.73,4.19,6.55,2.65,13.14,6.49,19.77,11.27,1.62,1.17,3.77,1.32,5.98.92,3.16-.57,6.39-2.25,8.54-3.85.49-.36.96-.76,1.4-1.18,3.38-3.21,5.16-7.86,5.41-12.64.25-4.82-1.04-9.74-3.82-13.48-.4-.53-.83-1.05-1.29-1.53-1.64-1.72-3.6-3.1-5.74-4.05-2.1-.93-4.38-1.44-6.71-1.46-7.22-.05-14.43-.09-21.64-.11-7.22-.03-14.43-.04-21.65-.05Z"/>
          <path class="cls-4" d="M120.36,38.91h0c.86.24,1.72.52,2.56.83,1.42.16,2.87-.14,4.14-.89,2.06-1.22,3.31-3.46,3.27-5.85-.04-2.4-1.36-4.59-3.47-5.74,8.7,3.42,14.08,7.58,16.14,12.47,3.39,2.48,6.18,3.35,8.36,2.61-12.5,4-21.68,8.29-27.55,12.85-.29-.4-.58-.79-.87-1.16-12.51,9.11-22.31,21.65-29.42,37.63-6.03-6.69-8.68-15.76-7.2-24.65,1.47-8.88,6.91-16.61,14.78-21,1.69-.88,3.45-1.56,5.25-2.04-7.29-.13-15.24,4.59-23.84,14.16,3.36-8.93,10.58-15.85,19.65-18.82,5.96-1.95,12.29-2.05,18.2-.41M225.41,38.91h0,0c-.86.24-1.72.52-2.56.83-1.42.16-2.87-.14-4.14-.89-2.06-1.22-3.31-3.46-3.27-5.85.04-2.4,1.36-4.59,3.47-5.74-8.7,3.42-14.08,7.58-16.14,12.47-3.39,2.48-6.18,3.35-8.36,2.61,12.5,4,21.68,8.29,27.55,12.85.29-.4.58-.79.87-1.16,12.51,9.11,22.31,21.65,29.42,37.63,6.03-6.69,8.68-15.76,7.2-24.65-1.47-8.88-6.91-16.61-14.78-21-1.69-.88-3.45-1.56-5.25-2.04,7.29-.13,15.24,4.59,23.84,14.16-3.36-8.93-10.58-15.85-19.65-18.82-5.96-1.95-12.29-2.05-18.2-.41ZM124.28,157.91c-24.75-11.13-34.42-31.31-32.59-52h0s-.03,0-.03,0h0c-.71-.27-1.4-.57-2.08-.87l.1-.14c-16.81-8.94-23.79-21.74-20.94-38.4,1.11,13.28,9.62,13.72,10.04,3.57.97,12.74,5.7,22.21,14.21,28.41.71-4.2,2.56-8.2,5.46-11.51-2.7,7.93,1.98,11.43,4.93,2.08-1.41,10.02-1.17,20.86,7.78,29.37.72.68,1.48,1.33,2.29,1.93,3.95,2.93,8.88,5.16,13.75,5.76,4.29.53,8.56-.19,12.15-2.77,6.11-4.4,11.94-7.78,17.55-10.06,1.13-.46,2.26-.88,3.38-1.25-.04.21-.06.42-.06.64,0,.84.34,1.8.97,2.77-1.42.44-2.85.95-4.29,1.54-5.61,2.28-11.44,5.66-17.55,10.06-3.58,2.58-7.85,3.3-12.15,2.77-4.88-.6-9.81-2.83-13.75-5.76-.81-.6-1.58-1.25-2.29-1.93-4.11-3.91-6.71-9.07-7.82-14.57h0s0,0,0,0c-.04-.19-.07-.38-.11-.58-.39-1.54-1.51-2.81-3.02-3.38-8.95-3.38-16.39,49,72.67,47.92,89.07,1.08,81.62-51.3,72.67-47.92-1.51.57-2.63,1.84-3.02,3.38-.04.19-.07.39-.11.58h0s0,0,0,0c-1.11,5.51-3.7,10.66-7.82,14.57-.71.68-1.48,1.33-2.29,1.93-3.95,2.93-8.88,5.16-13.76,5.76-4.29.53-8.56-.19-12.15-2.77-6.11-4.4-11.94-7.78-17.55-10.06-1.45-.59-2.88-1.1-4.29-1.54.63-.97.97-1.94.97-2.77,0-.22-.02-.43-.06-.64,1.12.37,2.24.79,3.38,1.25,5.61,2.28,11.44,5.66,17.55,10.06,3.58,2.58,7.85,3.3,12.15,2.77,4.88-.6,9.81-2.83,13.76-5.76.81-.6,1.58-1.25,2.29-1.93,8.95-8.51,9.2-19.35,7.78-29.37,2.95,9.35,7.63,5.85,4.93-2.08,2.9,3.31,4.75,7.31,5.46,11.51,8.51-6.2,13.25-15.67,14.21-28.41.42,10.15,8.93,9.71,10.04-3.57,2.86,16.66-4.12,29.45-20.94,38.4l.1.14c-.68.31-1.37.6-2.08.87h-.03s0,0,0,0c1.8,20.32-7.5,40.16-31.29,51.4.01-.35-6.38,2.89-6.38,2.54-32.31,8.49-54.73,8.55-87.04.07,0,.55-5.12-2.56-5.09-2.01Z"/>
          <path class="cls-3" d="M168.14,178.01c-8.49.12-11.62-2.27-9.37-7.19,6.88,1.49,10,3.88,9.37,7.19M130.75,204.92c-.24-.5-.45-.97-.64-1.41-.96-.4-1.86-.92-2.66-1.54l-.03.18c-10.03-1.9-15.04-2.85-15.04-2.85,7.89-13.9,3.72-21.15-12.54-21.74,1.1-1.7,2.27-3.44,3.5-5.21l-2.33-1.24c.36-.36.75-.62,1.15-.79-5.57-2.92-6.91-6.97-4.02-12.17-6.16-6.9-6.44-13.89-.87-20.98l7.06,8.57c1.28.5,3.24,2.37,5.88,5.6-4.47-2.06-6.79-1.46-6.96,1.81-.06,3.9,4.25,7.67,12.94,11.33-3.45.57-5.18.86-5.18.86-5.18,4.38.93,7.78,18.34,10.2-8.94-.5-16.04-1.49-21.31-2.97,5.51,2.67,10.36,4.16,14.53,4.45.17-.23.35-.46.53-.7,3.78.25,12.05.1,24.79-.46-4.37-.14-7.9-.33-10.61-.57,2.71-.04,4.99-2.03,5.39-4.71.4-2.68-1.19-5.25-3.77-6.09,10.04.3,15.08,1.64,15.12,4.02-5.43,1.38-7.47,3.83-6.14,7.35,0,0,.07,1.35.2,4.04-6.34-.86-11.13-.48-14.38,1.14-2.88,2.59-2.54,6.42-2.26,10.29.46,6.48,13.76,8.65,8.86,7.41-2.47-.26-4.4-.08-5.77.55-3.95,3.24-.85,5.72,9.3,7.45,5.85.85,8.45-.53,7.81-4.14,2.83,5.39,4.24,8.08,4.24,8.08-9.51,2.92-17.89,1.01-25.13-5.73ZM245.67,241.31c-.23-.73-.57-1.48-1.01-2.24h-.02c1.23-.59,2.39-1.2,3.5-1.84-1.27,0-2.54-.07-3.82-.21,14.65-7.66,18.84-20.37,12.58-38.12.3,13.81-13.93,24.61-42.69,32.41-4.99.36-8.28-3.96-9.87-12.97-.31,1.78-.42,3.56-.36,5.3-.88-3.19-1.61-6.67-2.18-10.42-4.3,11.47-2.12,24.36,5.69,33.79,4.49,7.34-7.04,11.09-34.6,11.23-27.56-.15-39.1-3.89-34.6-11.23,7.82-9.43,9.99-22.32,5.69-33.79-.57,3.76-1.3,7.23-2.18,10.42.07-1.75-.05-3.52-.36-5.3-1.59,9.01-4.88,13.34-9.87,12.97-28.75-7.8-42.98-18.61-42.69-32.41-6.26,17.75-2.07,30.45,12.58,38.12-1.28.14-2.55.21-3.82.21,1.11.64,2.27,1.25,3.5,1.85h-.02c-.59,1-.99,1.98-1.2,2.93,13.28,10.84,28.87,18.59,45.61,22.63,7.58,1.25,16.7,2.27,27.37,3.07,9.2-.68,17.26-1.54,24.16-2.57,17.92-3.95,34.59-12.14,48.62-23.82ZM177.62,178.01c8.49.12,11.62-2.27,9.37-7.19-6.88,1.49-10,3.88-9.37,7.19ZM172.88,212.8c8.65.05,12.22-2.65,10.71-8.09-3.56,2.26-7.13,3.35-10.71,3.29-3.58.07-7.15-1.03-10.71-3.29-1.51,5.44,2.06,8.14,10.71,8.09ZM215.02,204.92c.24-.5.45-.97.64-1.41.96-.4,1.86-.92,2.66-1.54l.03.18c10.03-1.9,15.04-2.85,15.04-2.85-7.89-13.9-3.72-21.15,12.54-21.74-1.1-1.7-2.27-3.44-3.5-5.21l2.33-1.24c-.36-.36-.75-.62-1.15-.79,5.57-2.92,6.91-6.97,4.02-12.17,6.16-6.9,6.45-13.89.87-20.98l-7.06,8.57c-1.28.5-3.24,2.37-5.88,5.6,4.47-2.06,6.79-1.46,6.96,1.81.06,3.9-4.25,7.67-12.94,11.33,3.45.57,5.18.86,5.18.86,5.18,4.38-.93,7.78-18.34,10.2,8.94-.5,16.04-1.49,21.31-2.97-5.51,2.67-10.36,4.16-14.53,4.45-.17-.23-.35-.46-.53-.7-3.78.25-12.05.1-24.79-.46,4.37-.14,7.9-.33,10.61-.57-2.71-.04-4.99-2.03-5.39-4.71-.4-2.68,1.19-5.25,3.77-6.09-10.04.3-15.08,1.64-15.12,4.02,5.43,1.38,7.47,3.83,6.14,7.35,0,0-.07,1.35-.2,4.04,6.34-.86,11.13-.48,14.38,1.14,2.88,2.59,2.54,6.42,2.26,10.29-.46,6.48-13.76,8.65-8.86,7.41,2.47-.26,4.4-.08,5.77.55,3.95,3.24.85,5.72-9.3,7.45-5.85.85-8.45-.53-7.81-4.14-2.83,5.39-4.24,8.08-4.24,8.08,9.51,2.92,17.89,1.01,25.13-5.73ZM220.79,246.62c1.11-.23,2.2-.46,3.27-.71l-4.18,1.39c-1.89-1.06-3.64-2.36-5.26-3.91,1.86,1.33,3.93,2.42,6.17,3.23ZM124.98,246.62c-1.11-.23-2.2-.46-3.27-.71l4.18,1.39c1.89-1.06,3.64-2.36,5.26-3.91-1.86,1.33-3.93,2.42-6.17,3.23Z"/>
          <path class="cls-34" d="M127.76,258.78c2.46.84,4.94,1.6,7.44,2.3,12.32,3.43,25.01,5.15,37.69,5.15,12.68,0,25.37-1.72,37.69-5.15.82-.23,1.64-.46,2.45-.71-12.81,4.86-26.55,7.45-40.65,7.45-15.56,0-30.7-3.16-44.61-9.04M200.41,162.88v-.02s.79-.16.79-.16c10.9-2.18,19.91-5.65,27.17-10.05,7.79-4.73,13.58-10.54,17.57-17.01l.71-1.15,1.21.6h.01c1.79.91,3.16,2.1,4.17,3.46,1.48,2,2.13,4.36,2.12,6.78-.01,2.36-.66,4.78-1.78,6.99-.91,1.79-2.15,3.46-3.62,4.85.85.7,1.52,1.43,2.01,2.19.66,1.04.98,2.12.95,3.25-.03,1.1-.39,2.19-1.08,3.28-.9,1.42-2.39,2.87-4.46,4.33,12.44,17.28,18.72,31.65,18.86,43.12.04,3.3-.42,6.36-1.38,9.18-4.16,5.48-8.77,10.53-13.77,15.12-1.07.58-2.19,1.13-3.37,1.66l.17,1.17c-.88.75-1.77,1.48-2.67,2.2l-.75-5.21,1.06-.44c11.97-5,17.89-12.89,17.77-23.64-.13-11.1-6.53-25.32-19.19-42.65l-.93-1.27,1.33-.85c2.39-1.52,4.01-2.95,4.85-4.28.4-.64.61-1.23.63-1.79.01-.52-.15-1.05-.48-1.58-.51-.81-1.42-1.62-2.71-2.44l-1.83-1.16,1.74-1.28c1.78-1.31,3.26-3.11,4.27-5.1.93-1.82,1.46-3.78,1.47-5.66.01-1.81-.46-3.56-1.54-5.01-.51-.7-1.17-1.34-1.99-1.9-4.18,6.36-10.06,12.08-17.77,16.76-7.51,4.56-16.77,8.14-27.9,10.39l-.21.04c-5.37,1.14-10.49,3.11-15.18,5.83-4.69,2.71-8.96,6.16-12.63,10.25l-1.1.34-1.1-.34c-3.67-4.09-7.94-7.54-12.63-10.25-4.69-2.71-9.81-4.69-15.18-5.83l-.21-.04c-11.13-2.25-20.39-5.83-27.9-10.39-7.72-4.68-13.59-10.4-17.77-16.76-.82.56-1.48,1.2-1.99,1.9-1.08,1.46-1.55,3.2-1.54,5.01.01,1.88.54,3.84,1.47,5.66,1.01,1.99,2.49,3.78,4.27,5.1l1.74,1.28-1.83,1.16c-1.29.82-2.2,1.63-2.71,2.44-.34.53-.5,1.06-.48,1.58.02.55.22,1.15.63,1.79.84,1.33,2.46,2.76,4.85,4.28l1.33.85-.93,1.27c-12.67,17.33-19.06,31.55-19.19,42.65-.13,10.76,5.8,18.64,17.76,23.64l1.06.44-.86,5.94c-.9-.71-1.8-1.43-2.68-2.16l.28-1.94c-2.27-1.01-4.33-2.12-6.19-3.34-3.48-3.33-6.76-6.9-9.82-10.68-1.73-3.54-2.57-7.52-2.52-11.94.13-11.47,6.42-25.84,18.86-43.12-2.07-1.46-3.56-2.9-4.46-4.33-.69-1.09-1.05-2.18-1.08-3.28-.03-1.12.28-2.21.95-3.25.48-.76,1.15-1.49,2.01-2.19-1.48-1.39-2.71-3.06-3.63-4.85-1.12-2.21-1.77-4.63-1.78-6.99-.01-2.42.64-4.78,2.12-6.78,1-1.36,2.38-2.54,4.17-3.46h.01l1.21-.61.71,1.15c3.99,6.47,9.78,12.29,17.57,17.01,7.26,4.41,16.27,7.87,27.17,10.05l.78.16v.02c5.4,1.22,10.55,3.25,15.29,5.99,4.5,2.6,8.63,5.84,12.25,9.64,3.62-3.8,7.75-7.04,12.25-9.64,4.74-2.74,9.88-4.77,15.28-5.99Z"/>
          <path class="cls-34" d="M158.43,164.66c4.55.4,9.36.61,14.45.61s9.9-.21,14.45-.61c23.17-2.05,39.56-9.06,50.15-18.81l.08-.08c10.49-9.69,15.26-22.11,15.26-35,0-1.57-.07-3.15-.21-4.73h0c-.04-.47.14-.94.53-1.26.17-.14.37-.24.58-.29,7.67-2.99,13.89-8.35,18-15,4.12-6.67,6.11-14.65,5.33-22.87-.12-.67.24-1.35.89-1.62.75-.32,1.62.04,1.94.79l.6,1.43c.37-8.17-1.64-16.1-5.54-22.95-4.78-8.4-12.42-15.17-22.02-18.78-9.61-3.61-19.81-3.54-28.94-.37-9.09,3.16-17.11,9.39-22.41,18.12-.32.66-1.1,1-1.81.75-4.19-1.44-8.58-2.59-13.15-3.4-4.43-.79-9.01-1.27-13.71-1.4-4.71.13-9.29.61-13.71,1.4-4.57.82-8.96,1.96-13.15,3.4-.38.13-.8.1-1.18-.1-.28-.15-.48-.37-.62-.63-5.3-8.74-13.33-14.98-22.43-18.14-9.13-3.17-19.34-3.24-28.94.37-9.6,3.61-17.24,10.38-22.02,18.78-3.9,6.85-5.91,14.78-5.54,22.95l.6-1.43c.25-.58.85-.96,1.51-.9.81.08,1.41.8,1.33,1.61-.81,8.26,1.19,16.28,5.32,22.98,4.1,6.65,10.3,11.99,17.96,14.99.71.16,1.21.83,1.15,1.57-.14,1.58-.21,3.16-.21,4.73,0,12.9,4.77,25.31,15.26,35,10.59,9.79,27.01,16.84,50.22,18.89M172.88,168.24c-5.16,0-10.06-.21-14.7-.62-23.93-2.11-40.93-9.45-51.97-19.66-11.15-10.3-16.22-23.49-16.22-37.18,0-1.29.05-2.59.14-3.89-7.89-3.29-14.3-8.92-18.58-15.85-3.2-5.18-5.21-11.09-5.78-17.3-.35.68-1.17.98-1.89.68-.5-.21-.82-.66-.89-1.16-1.91-10.78.17-21.48,5.28-30.45,5.12-8.98,13.28-16.23,23.55-20.09,10.27-3.86,21.18-3.78,30.95-.39,9.42,3.27,17.76,9.62,23.43,18.48,3.99-1.31,8.15-2.37,12.48-3.14,4.54-.81,9.27-1.3,14.19-1.43h.09c4.91.14,9.64.63,14.17,1.43,4.32.77,8.49,1.83,12.48,3.14,5.66-8.86,14.01-15.21,23.43-18.48,9.76-3.39,20.68-3.47,30.95.39,10.27,3.86,18.43,11.11,23.55,20.09,5.12,8.98,7.19,19.7,5.27,30.5-.14.81-.91,1.34-1.71,1.2-.47-.08-.85-.38-1.06-.77-.57,6.21-2.58,12.12-5.78,17.3-4.28,6.94-10.69,12.56-18.58,15.85.09,1.3.14,2.6.14,3.89,0,13.69-5.07,26.88-16.22,37.18l-.09.08c-11.05,10.17-28.03,17.48-51.88,19.58-4.64.41-9.54.62-14.7.62Z"/>
          <path class="cls-34" d="M105.13,69.39c5.91-7.91,13.32-14.7,21.91-19.93-3.75-2.55-7.98-4.16-12.35-4.77-5.07-.71-10.34-.08-15.24,1.96-4.89,2.04-9.04,5.34-12.11,9.44-3.07,4.11-5.05,9.02-5.63,14.29-.57,5.28.32,10.5,2.44,15.17,1.83,4.02,4.56,7.63,8.07,10.5,2.59-9.72,7-18.75,12.91-26.66M130.39,50.91c-9.03,5.16-16.79,12.08-22.89,20.25-6.11,8.18-10.56,17.6-12.95,27.75-.19.8-.98,1.29-1.78,1.11-.23-.05-.44-.16-.61-.3-4.74-3.35-8.4-7.85-10.71-12.95-2.33-5.13-3.31-10.89-2.68-16.7.63-5.82,2.82-11.23,6.19-15.75,3.38-4.52,7.95-8.15,13.35-10.4,5.39-2.25,11.19-2.94,16.78-2.16,5.59.78,10.97,3.04,15.55,6.68.64.51.75,1.44.24,2.08-.13.17-.3.3-.48.39Z"/>
          <path class="cls-34" d="M136.96,47.68c-12.24,5.43-22.56,13.95-30.16,24.44-7.6,10.49-12.47,22.95-13.81,36.28-.08.81-.8,1.41-1.62,1.33-.81-.08-1.41-.8-1.33-1.62,1.4-13.87,6.46-26.82,14.35-37.72,16.22-22.4,38.15-25.17,32.56-22.7"/>
          <path class="cls-34" d="M151.31,68.42c7.22-.02,14.42-.04,21.57-.05,7.16.01,14.35.03,21.57.05,7.24.02,14.5.05,21.78.08h.02c3.69.06,7.29.86,10.59,2.32,3.31,1.46,6.34,3.56,8.88,6.24.74.78,1.43,1.6,2.06,2.46,4.23,5.7,6.14,12.99,5.71,20.07-.43,7.11-3.23,14.04-8.43,18.98-.72.69-1.49,1.34-2.31,1.94-3.98,2.95-8.94,5.2-13.86,5.8-4.33.53-8.63-.19-12.23-2.79-6.15-4.43-12.03-7.84-17.68-10.13-5.59-2.27-10.94-3.45-16.1-3.47-5.17.02-10.52,1.2-16.1,3.47-5.65,2.3-11.52,5.7-17.68,10.13-3.61,2.6-7.91,3.32-12.23,2.79-4.91-.61-9.88-2.85-13.86-5.8-.82-.61-1.59-1.26-2.31-1.94-5.2-4.94-8-11.87-8.44-18.98-.43-7.08,1.48-14.38,5.71-20.07.64-.86,1.33-1.68,2.06-2.46,2.54-2.67,5.56-4.78,8.88-6.24,3.31-1.45,6.9-2.25,10.59-2.32h.02c7.28-.03,14.54-.06,21.78-.08M172.88,71.33c-7.16.01-14.35.03-21.57.05-7.21.02-14.46.05-21.75.08-3.29.06-6.5.77-9.46,2.07-2.95,1.3-5.65,3.18-7.92,5.56-.66.69-1.27,1.42-1.83,2.18-3.8,5.12-5.52,11.71-5.13,18.14.39,6.4,2.89,12.61,7.52,17.02.64.61,1.32,1.18,2.03,1.71,3.59,2.67,8.06,4.69,12.45,5.24,3.64.45,7.21-.13,10.15-2.25,6.36-4.58,12.44-8.1,18.29-10.48,5.92-2.41,11.64-3.66,17.21-3.68,5.58.02,11.29,1.27,17.21,3.68,5.86,2.38,11.93,5.9,18.29,10.48,2.94,2.11,6.51,2.7,10.15,2.25,4.4-.54,8.86-2.57,12.45-5.24.71-.53,1.39-1.1,2.03-1.71,4.63-4.4,7.13-10.62,7.52-17.02.39-6.42-1.33-13.01-5.13-18.14-.56-.76-1.17-1.49-1.83-2.18-2.27-2.39-4.97-4.27-7.92-5.56-2.96-1.3-6.17-2.02-9.46-2.07h0c-7.29-.03-14.54-.06-21.74-.08-7.22-.02-14.42-.04-21.57-.05Z"/>
          <path class="cls-34" d="M158.75,177.95c-.81-.12-1.37-.87-1.25-1.68.12-.81.87-1.37,1.68-1.25,2.47.37,4.91.9,7.3,1.61,2.39.71,4.75,1.61,7.05,2.72.73.35,1.04,1.24.69,1.97-.36.74-1.24,1.04-1.98.69-2.14-1.03-4.35-1.88-6.61-2.55-2.25-.67-4.55-1.17-6.88-1.52M100.99,171.14c-.72-.39-.98-1.29-.59-2,.39-.72,1.29-.98,2-.59,6.18,3.36,12.51,5.35,18.93,6.3,6.44.96,12.98.87,19.55.09,1.17-.14,2.36-.26,3.55-.35,1.13-.09,2.32-.15,3.56-.19.82-.02,1.5.62,1.52,1.44.02.81-.62,1.5-1.44,1.52-1.09.03-2.23.1-3.42.19-1.13.09-2.28.2-3.42.34-6.81.81-13.61.9-20.33-.1-6.74-1-13.4-3.1-19.91-6.64Z"/>
          <path class="cls-34" d="M96.31,156.46c-.59-.57-.61-1.5-.04-2.09.57-.59,1.5-.61,2.09-.04,2.5,2.42,5.29,4.5,8.28,6.2,2.99,1.7,6.2,3.02,9.56,3.94,5.27,1.43-6.72,4.72-19.89-8.01"/>
          <path class="cls-34" d="M156.39,172.62c-.43-.43-.96-.77-1.55-.97.17.13.34.27.5.42.82.75,1.55,1.72,2.2,2.9-.11-.92-.53-1.74-1.15-2.36M153.53,168.47c1.93,0,3.68.78,4.95,2.05h0c1.27,1.27,2.05,3.02,2.05,4.95,0,.87-.16,1.7-.46,2.48-.3.8-.75,1.53-1.31,2.16-.54.61-1.47.67-2.09.13-.21-.19-.35-.42-.43-.67-.78-2.49-1.75-4.26-2.91-5.32-1.01-.93-2.23-1.3-3.63-1.1-.81.11-1.55-.46-1.66-1.27-.06-.46.09-.9.39-1.21.65-.69,1.44-1.25,2.32-1.63.85-.37,1.79-.57,2.77-.57Z"/>
          <path class="cls-34" d="M149.49,175.46c0,.99.35,1.98,1.07,2.76,1.94,1.9,3.28,4.38,4.01,7.45.7,2.96.84,6.49.41,10.57,0,.1-.02.2-.05.3-.65,2.43-.64,4.95-.03,7.3.62,2.35,1.84,4.54,3.6,6.34l.05.06c.26.29.6.48.96.55h.04c.38.07.78.01,1.13-.18.97-.53.85-1.14.46-1.86-.18-.33-.41-.7-.65-1.09-.96-1.53-2.05-3.29-2.1-5.55v-.08c.13-10.44-.64-18.11-2.31-23.02-1.36-4.01-3.3-5.97-5.81-5.91-.51.7-.77,1.53-.77,2.35M148.4,180.24c-1.25-1.35-1.88-3.07-1.87-4.79,0-1.72.64-3.44,1.91-4.78.26-.27.59-.43.94-.46,4.35-.57,7.52,2.04,9.5,7.85,1.77,5.21,2.6,13.2,2.46,23.98.03,1.44.9,2.84,1.66,4.06.26.42.51.82.74,1.23,1.23,2.24,1.56,4.13-1.62,5.88-.96.53-2.04.69-3.06.51h-.07c-.97-.2-1.89-.69-2.59-1.46-2.13-2.17-3.6-4.82-4.35-7.67-.74-2.81-.76-5.8,0-8.7.39-3.72.27-6.9-.36-9.53-.6-2.54-1.68-4.56-3.23-6.05l-.06-.06Z"/>
          <path class="cls-34" d="M112.73,199.78c-4.55-.96,13.74-2.35,30.57,11.6.63.52.72,1.45.2,2.08-.52.63-1.45.72-2.08.2-4.15-3.44-8.69-6.35-13.5-8.68-4.81-2.33-9.91-4.08-15.18-5.2"/>
          <path class="cls-34" d="M97.35,238.39c-.74-.34-1.07-1.22-.73-1.96.34-.74,1.22-1.07,1.96-.73,4.13,1.88,8.65,3.65,13.28,5.26,5.06,1.76,10.27,3.33,15.28,4.66.79.21,1.26,1.02,1.05,1.81-.21.79-1.02,1.26-1.81,1.05-5.06-1.34-10.34-2.94-15.5-4.73-4.7-1.63-9.3-3.43-13.53-5.36"/>
          <path class="cls-34" d="M126.01,191.88c-1.41-4.4,5.41-1.07,2.73,11.67-.26.77-1.1,1.19-1.87.93-.77-.26-1.19-1.1-.93-1.87.58-1.74.88-3.55.89-5.35.01-1.81-.26-3.63-.83-5.37"/>
          <path class="cls-34" d="M238.26,71.16c-6.1-8.17-13.86-15.09-22.89-20.25-.18-.09-.35-.23-.48-.39-.51-.64-.4-1.57.24-2.08,4.57-3.64,9.96-5.9,15.55-6.68,5.59-.78,11.38-.09,16.78,2.16,5.4,2.25,9.97,5.88,13.35,10.4,3.38,4.52,5.56,9.93,6.19,15.75.63,5.81-.35,11.56-2.68,16.7-2.32,5.1-5.97,9.6-10.71,12.95-.17.14-.38.25-.61.3-.8.19-1.59-.31-1.78-1.11-2.39-10.15-6.84-19.57-12.95-27.75M218.73,49.46c8.59,5.24,16,12.03,21.91,19.93,5.91,7.91,10.32,16.94,12.91,26.66,3.5-2.87,6.24-6.47,8.07-10.5,2.12-4.67,3.01-9.89,2.44-15.17-.57-5.27-2.56-10.18-5.62-14.29-3.07-4.1-7.21-7.4-12.11-9.44-4.9-2.04-10.16-2.67-15.24-1.96-4.37.61-8.61,2.22-12.35,4.77Z"/>
          <path class="cls-34" d="M208.8,47.68c-5.62-2.48,16.37.35,32.56,22.7,7.89,10.9,12.96,23.86,14.35,37.72.08.81-.51,1.54-1.33,1.62-.81.08-1.54-.51-1.62-1.33-1.34-13.33-6.21-25.79-13.81-36.28-7.6-10.49-17.92-19-30.16-24.44"/>
          <path class="cls-34" d="M186.59,175.02c.81-.12,1.56.44,1.68,1.25.12.81-.44,1.56-1.25,1.68-2.33.35-4.63.84-6.88,1.52-2.26.67-4.47,1.52-6.61,2.55-.74.36-1.62.05-1.98-.69-.35-.74-.05-1.62.69-1.97,2.3-1.11,4.66-2.01,7.05-2.72,2.39-.71,4.83-1.24,7.3-1.61M243.36,168.55c.72-.39,1.61-.13,2,.59.39.72.13,1.61-.59,2-6.51,3.54-13.17,5.64-19.91,6.64-6.72,1-13.51.91-20.33.1-1.15-.14-2.29-.25-3.42-.34-1.19-.09-2.33-.15-3.42-.19-.82-.02-1.46-.7-1.44-1.52.02-.81.7-1.46,1.52-1.44,1.24.04,2.42.1,3.56.19,1.19.09,2.38.21,3.55.35,6.57.78,13.11.87,19.55-.09,6.42-.95,12.75-2.94,18.93-6.3Z"/>
          <path class="cls-34" d="M247.41,154.33c.59-.57,1.52-.55,2.09.04.57.59.55,1.52-.04,2.09-13.17,12.73-25.16,9.43-19.89,8.01,3.36-.91,6.57-2.24,9.56-3.94,3-1.7,5.78-3.78,8.28-6.2"/>
          <path class="cls-34" d="M187.29,170.52c1.27-1.27,3.02-2.05,4.95-2.05.98,0,1.92.2,2.77.57.88.38,1.67.94,2.32,1.63.29.31.45.75.39,1.21-.11.81-.85,1.38-1.66,1.27-1.41-.19-2.62.18-3.63,1.1-1.16,1.06-2.13,2.83-2.91,5.32-.08.25-.22.48-.43.67-.61.54-1.55.48-2.09-.13-.56-.63-1.01-1.36-1.31-2.16-.29-.77-.46-1.61-.46-2.48,0-1.93.78-3.68,2.05-4.95h0ZM190.93,171.65c-.59.2-1.12.53-1.55.97-.62.62-1.04,1.44-1.15,2.36.65-1.18,1.38-2.15,2.2-2.9.16-.15.33-.29.5-.42Z"/>
          <path class="cls-34" d="M199.23,175.44c0,1.72-.62,3.44-1.87,4.79l-.06.06c-1.55,1.49-2.62,3.51-3.22,6.05-.62,2.63-.74,5.81-.36,9.53.76,2.9.73,5.89,0,8.7-.75,2.84-2.22,5.5-4.35,7.67-.7.77-1.62,1.27-2.59,1.45h-.07c-1.02.19-2.1.03-3.06-.5-3.18-1.75-2.86-3.63-1.62-5.88.23-.41.48-.81.73-1.23.76-1.22,1.63-2.62,1.66-4.06-.13-10.77.69-18.77,2.46-23.98,1.98-5.81,5.14-8.42,9.5-7.85.34.03.68.19.94.46,1.26,1.34,1.9,3.06,1.91,4.78M195.21,178.21c.72-.78,1.08-1.77,1.07-2.76,0-.82-.26-1.65-.77-2.35-2.51-.07-4.45,1.9-5.81,5.91-1.67,4.91-2.44,12.58-2.31,23.02v.08c-.05,2.26-1.15,4.02-2.1,5.55-.24.39-.47.76-.65,1.09-.4.72-.51,1.33.46,1.86.35.19.75.25,1.13.19h.04c.36-.08.7-.27.96-.56l.05-.06c1.76-1.8,2.98-3.99,3.6-6.34.62-2.35.63-4.87-.03-7.3-.03-.1-.04-.2-.05-.3-.43-4.09-.29-7.61.41-10.57.73-3.07,2.07-5.56,4.01-7.45Z"/>
          <path class="cls-34" d="M157.95,210.12c.82.06,1.43.77,1.37,1.58-.06.81-.77,1.43-1.58,1.37-3.92-.29-7.36-.45-9.97-.35-1.74.07-3.05.22-3.79.51,1.11,7.39.02,14.03-2.6,19.69-2.94,6.36-7.81,11.46-13.67,15-.44,1.66-1.2,3.88-1.99,5.9-.49,1.26-1.01,2.45-1.48,3.39-.89-.41-1.78-.84-2.66-1.28.42-.83.91-1.96,1.39-3.19.85-2.15,1.65-4.55,2.02-6.12.09-.38.33-.73.7-.94,5.59-3.25,10.24-8.03,13.01-14,2.49-5.38,3.46-11.76,2.22-18.91-.07-.45.06-.92.39-1.27,1.06-1.11,3.3-1.61,6.37-1.73,2.77-.11,6.3.06,10.29.35M184.2,210.4c.81-.07,1.53.54,1.6,1.35.07.82-.54,1.53-1.36,1.6-1.49.12-3.22.28-4.99.43-2.03.18-4.12.36-6.46.55-.08,0-.16,0-.23,0-2.34-.19-4.43-.37-6.46-.55-1.76-.15-3.5-.3-4.99-.43-.81-.07-1.42-.78-1.35-1.6.07-.81.78-1.42,1.6-1.35,1.74.14,3.35.29,5,.43,2.14.19,4.33.38,6.32.54,1.99-.16,4.18-.35,6.32-.54,1.65-.14,3.26-.28,5-.43ZM221.35,256.82c-.42-.87-.86-1.91-1.29-3-.79-2.02-1.55-4.25-1.99-5.9-5.86-3.54-10.73-8.64-13.67-15-2.62-5.66-3.71-12.3-2.6-19.69-.74-.28-2.05-.44-3.79-.51-2.61-.1-6.06.07-9.97.35-.82.06-1.52-.56-1.58-1.37-.06-.81.56-1.52,1.37-1.58,3.98-.29,7.52-.46,10.29-.35,2.99.12,5.19.6,6.28,1.65.37.33.57.84.48,1.36-1.24,7.15-.28,13.53,2.22,18.91,2.75,5.95,7.38,10.71,12.94,13.96.37.19.67.54.77.98.38,1.58,1.18,3.97,2.02,6.12.41,1.04.82,2.01,1.19,2.79-.88.44-1.76.87-2.65,1.29Z"/>
          <path class="cls-34" d="M233.03,199.78c-5.27,1.12-10.37,2.87-15.18,5.2-4.81,2.33-9.34,5.24-13.5,8.68-.63.52-1.56.43-2.08-.2-.52-.63-.43-1.56.2-2.08,16.83-13.95,35.12-12.57,30.57-11.6"/>
          <path class="cls-34" d="M247.18,235.71c.74-.34,1.62-.01,1.96.73.34.74.01,1.62-.73,1.96-4.23,1.93-8.83,3.73-13.53,5.36-5.16,1.79-10.44,3.38-15.5,4.73-.79.21-1.6-.26-1.81-1.05-.21-.79.26-1.6,1.05-1.81,5.01-1.33,10.21-2.9,15.28-4.66,4.63-1.61,9.15-3.37,13.28-5.26"/>
          <path class="cls-34" d="M219.76,191.88c-.56,1.75-.84,3.56-.83,5.37.01,1.81.31,3.61.89,5.35.26.77-.16,1.61-.93,1.87-.77.26-1.61-.16-1.87-.93-2.62-13.31,4.15-16.07,2.74-11.67"/>
          <path class="cls-34" d="M171.4,118.92c0-.82.66-1.48,1.48-1.48s1.48.66,1.48,1.48c0,5.83-1.27,8.52,6.26,8.52,2.42,0,4.83-.68,6.94-2.04,5.55-3.56-.24,11.58-14.68,3.43-14.44,8.15-20.22-7-14.68-3.43,2.11,1.36,4.52,2.04,6.94,2.04,7.52,0,6.26-2.69,6.26-8.52"/>
          <path class="cls-34" d="M174.42,168.21c-5.48,0-11.16-.28-17.03-.83,1.88.88,3.64,1.81,5.28,2.79,4.11,2.44,7.51,5.18,10.22,8.23,2.76-3.07,6.18-5.83,10.25-8.28,1.45-.87,2.98-1.7,4.6-2.49-4.3.38-8.74.58-13.32.57M145.76,162.98c10.13,1.52,19.69,2.28,28.67,2.28,8.96,0,17.38-.75,25.25-2.26.8-.15,1.58.37,1.73,1.18.15.77-.33,1.51-1.08,1.71-6.05,1.88-11.28,4.15-15.67,6.78-4.36,2.62-7.91,5.6-10.63,8.96-.51.63-1.45.73-2.08.21-.08-.07-.16-.14-.22-.23-2.64-3.31-6.16-6.27-10.56-8.89-4.46-2.65-9.82-4.94-16.06-6.87-.78-.24-1.22-1.07-.98-1.85.22-.71.92-1.13,1.63-1.03Z"/>
          <path class="cls-7" d="M193.22,170.89c-1.72-.44-3.54.08-4.76,1.37-1.22,1.29-1.64,3.14-1.11,4.83,1.35-2.24,3.3-4.3,5.86-6.2"/>
          <path class="cls-7" d="M152.64,170.89c1.72-.44,3.54.08,4.76,1.37,1.22,1.29,1.64,3.14,1.11,4.83-1.35-2.24-3.3-4.3-5.86-6.2"/>
          <path class="cls-6" d="M172.88,110.54c5.15,0,9.32.54,9.32,1.22s-4.17,1.22-9.32,1.22-9.32-.54-9.32-1.22,4.17-1.22,9.32-1.22"/>
        </g>
        <g>
          <path class="cls-10" d="M325.06,302.05c-96.24-36.48-198.08-35.03-304.92.25-1.96.65-3.94-.93-3.94-3.15v-83.3c0-1.62,1.09-3.01,2.57-3.27,107.38-18.7,210.36-20.11,307.87-.06,1.44.3,2.48,1.67,2.48,3.26v83.17c0,2.28-2.08,3.86-4.06,3.11Z"/>
          <g class="cls-11">
            <path class="cls-30" d="M342.91,217.33v8.19c-33.35,24.25-94.64,40.51-164.72,40.51-78.62,0-146.16-20.46-175.63-49.72.38-1.26,1.38-2.25,2.64-2.47,116.85-20.35,228.89-21.88,335.01-.07,1.57.32,2.7,1.82,2.7,3.55Z"/>
          </g>
          <path class="cls-19" d="M325.06,302.05c-96.24-36.48-198.08-35.03-304.92.25-1.96.65-3.94-.93-3.94-3.15v-83.3c0-1.62,1.09-3.01,2.57-3.27,107.38-18.7,210.36-20.11,307.87-.06,1.44.3,2.48,1.67,2.48,3.26v83.17c0,2.28-2.08,3.86-4.06,3.11Z"/>
        </g>
        <g>
          <g>
            <path class="cls-18" d="M22.4,294.95c0-23.73-.04-47.46.06-71.18,10.51-1.27,21.05-2.41,31.59-3.42-.17,6.5-.47,13.44-.51,18.42-5.58.46-11.16.96-16.73,1.49-.01,2.29-.02,4.58-.03,6.87,4.67-.63,9.35-1.22,14.03-1.78-.04,5.05-.09,10.09-.13,15.14-3.91.79-7.81,1.62-11.71,2.49-.73-4.87-1.46-9.8-2.2-14.8-.06,13.72-.13,27.44-.19,41.16-4.74,1.78-9.47,3.65-14.18,5.62Z"/>
            <path class="cls-18" d="M54.75,283c.2-20.95.36-41.88.92-62.82,4.77-.46,9.51-.9,14.24-1.32-.22,19.65-.53,39.29-.77,58.94.89-4.88,1.78-9.69,2.68-14.45,4.71-.94,9.42-1.82,14.14-2.63-.06,4.56-.13,9.12-.19,13.68-10.42,2.39-20.86,5.29-31.02,8.61Z"/>
            <path class="cls-18" d="M87.07,259.93c.68-9.71,4.55-18.91,4.7-28.42.09-5.59-.71-9.8-2.74-14.27,4.61-.37,9.29-.74,14.06-1.07,1.93,3.23,2.8,8.45,2.87,13.63.18,14-4.53,19.78-4.63,26.87-.03,2.38,1.36,4.24,4.33,3.81,3.24-.47,5.38-4.21,5.43-8.13.21-12.25.16-24.44,0-36.69,4.88-.3,9.75-.56,14.63-.8.11,17.48-.06,34.93-.27,52.41-4.87.61-9.74,1.32-14.6,2.13.06-4.16.11-8.32.17-12.48-1.06,3.93-2.12,7.9-3.18,11.93-1.55.95-5.2,2.44-8.04,3.02-9.19,1.88-12.84-3.84-12.73-11.93Z"/>
            <path class="cls-18" d="M127.65,266.99c.2-17.42.36-34.82.27-52.24,10.48-.5,20.99-.83,31.49-.99,0,6.31,0,13.8,0,19.09-5.61.07-11.23.21-16.84.39,0,2.2-.03,3.81-.04,5.27,4.5-.13,9-.24,13.51-.31-.02,3.42-.03,6.84-.05,10.25-3.75.1-7.49.24-11.23.41-.74-3.22-1.49-6.44-2.23-9.69-.05,5.29-.09,10.58-.14,15.87,5.64-.35,11.29-.6,16.93-.75-.01,3.41-.03,6.81-.04,10.22-10.53.33-21.17,1.17-31.62,2.47Z"/>
            <path class="cls-18" d="M161.05,213.74c4.87-.07,9.72-.13,14.58-.1,1.46,10.01,2.5,20.71,5.85,30.37-.03-10.1-.03-20.21-.03-30.31,4.85.06,9.71.14,14.57.27-.02,17.01.07,34.01.18,51.02-4.89-.3-9.78-.5-14.67-.61-1.99-6.9-3.97-13.76-5.94-20.61,0,6.84.01,13.68.02,20.52-4.89-.03-9.78.03-14.67.19.06-16.91.12-33.82.12-50.72Z"/>
            <path class="cls-18" d="M233.25,266.44c-8.39.93-16.84.7-22.07.17-8.22-.83-12.81-5.48-12.85-11.7-.05-7.02-.13-11.26-.15-22.09,0-9.57,4.55-19.43,12.76-19.15,3.16.12,6.32.26,9.48.41,8.21.31,12.54,11.08,12.52,20.32,0,3.84.05,6.15.09,8.99.17,12.46-8.75,13.99-12.83,14.12,6.38.2,9.99-.75,12.89-1.37.05,3.43.09,6.87.14,10.3ZM219.19,249.52c-.05-3.92-.09-7.85-.14-11.77-.02-1.65.31-5.81-3.47-5.99-3.78-.17-3.46,4.1-3.44,5.72.05,5,.1,10.01.16,15.01.02,1.63-.28,4.4,3.52,4.73.88.08,1.71.15,2.48.18.59-.98.96-2.82.9-7.9Z"/>
            <path class="cls-18" d="M234.87,256.48c-.11-8.03,4.01-13.38,4.13-26.09.06-5.83-.41-9.92-2.4-14.65,4.74.3,9.48.62,14.19,1.01,1.81,3.53,2.48,8.91,2.42,14.03-.15,14.06-4.2,19.41-4.1,26.49.03,2.41,1.5,4.75,4.45,5.26,3.23.57,5.26-2.87,5.19-7.22-.21-12.66-.22-25.25-.05-37.91,4.82.4,9.63.8,14.45,1.21-.23,19.71.09,39.4.34,59.11-4.81-1.3-9.64-2.51-14.47-3.62-.06-4.58-.13-9.16-.19-13.75-.94,4.03-1.89,8-2.83,11.92-1.52.41-5.13.51-7.98-.07-9.21-1.88-13.06-8.48-13.15-15.72Z"/>
            <path class="cls-18" d="M275.34,218.79c4.72.41,9.44.83,14.15,1.27-.2,20.81.1,41.62.3,62.44-4.69-1.49-9.4-2.88-14.12-4.19-.25-19.84-.56-39.67-.34-59.52Z"/>
            <path class="cls-18" d="M291.12,220.22c10.88,1.01,21.77,2.17,32.61,3.54,0,5.29-.02,10.6-.02,15.81-5.06,10.7-10.29,21.21-15.83,31.67,5.29,1.43,10.57,2.94,15.83,4.54v19.17c-10.7-4.3-21.37-8.24-32.3-11.92-.04-4.34-.08-8.68-.12-13.02,5.63-9.35,10.7-18.99,15.73-28.67-5.33-.54-10.67-1.04-16.02-1.52-.05-5.33.04-12.57.11-19.59Z"/>
            <path class="cls-32" d="M22.4,294.95c0-23.73-.04-47.46.06-71.18,10.51-1.27,21.05-2.41,31.59-3.42-.17,6.5-.47,13.44-.51,18.42-5.58.46-11.16.96-16.73,1.49-.01,2.29-.02,4.58-.03,6.87,4.67-.63,9.35-1.22,14.03-1.78-.04,5.05-.09,10.09-.13,15.14-3.91.79-7.81,1.62-11.71,2.49-.73-4.87-1.46-9.8-2.2-14.8-.06,13.72-.13,27.44-.19,41.16-4.74,1.78-9.47,3.65-14.18,5.62Z"/>
            <path class="cls-32" d="M54.75,283c.2-20.95.36-41.88.92-62.82,4.77-.46,9.51-.9,14.24-1.32-.22,19.65-.53,39.29-.77,58.94.89-4.88,1.78-9.69,2.68-14.45,4.71-.94,9.42-1.82,14.14-2.63-.06,4.56-.13,9.12-.19,13.68-10.42,2.39-20.86,5.29-31.02,8.61Z"/>
            <path class="cls-32" d="M87.07,259.93c.68-9.71,4.55-18.91,4.7-28.42.09-5.59-.71-9.8-2.74-14.27,4.61-.37,9.29-.74,14.06-1.07,1.93,3.23,2.8,8.45,2.87,13.63.18,14-4.53,19.78-4.63,26.87-.03,2.38,1.36,4.24,4.33,3.81,3.24-.47,5.38-4.21,5.43-8.13.21-12.25.16-24.44,0-36.69,4.88-.3,9.75-.56,14.63-.8.11,17.48-.06,34.93-.27,52.41-4.87.61-9.74,1.32-14.6,2.13.06-4.16.11-8.32.17-12.48-1.06,3.93-2.12,7.9-3.18,11.93-1.55.95-5.2,2.44-8.04,3.02-9.19,1.88-12.84-3.84-12.73-11.93Z"/>
            <path class="cls-32" d="M127.65,266.99c.2-17.42.36-34.82.27-52.24,10.48-.5,20.99-.83,31.49-.99,0,6.31,0,13.8,0,19.09-5.61.07-11.23.21-16.84.39,0,2.2-.03,3.81-.04,5.27,4.5-.13,9-.24,13.51-.31-.02,3.42-.03,6.84-.05,10.25-3.75.1-7.49.24-11.23.41-.74-3.22-1.49-6.44-2.23-9.69-.05,5.29-.09,10.58-.14,15.87,5.64-.35,11.29-.6,16.93-.75-.01,3.41-.03,6.81-.04,10.22-10.53.33-21.17,1.17-31.62,2.47Z"/>
            <path class="cls-32" d="M161.05,213.74c4.87-.07,9.72-.13,14.58-.1,1.46,10.01,2.5,20.71,5.85,30.37-.03-10.1-.03-20.21-.03-30.31,4.85.06,9.71.14,14.57.27-.02,17.01.07,34.01.18,51.02-4.89-.3-9.78-.5-14.67-.61-1.99-6.9-3.97-13.76-5.94-20.61,0,6.84.01,13.68.02,20.52-4.89-.03-9.78.03-14.67.19.06-16.91.12-33.82.12-50.72Z"/>
            <path class="cls-32" d="M233.25,266.44c-8.39.93-16.84.7-22.07.17-8.22-.83-12.81-5.48-12.85-11.7-.05-7.02-.13-11.26-.15-22.09,0-9.57,4.55-19.43,12.76-19.15,3.16.12,6.32.26,9.48.41,8.21.31,12.54,11.08,12.52,20.32,0,3.84.05,6.15.09,8.99.17,12.46-8.75,13.99-12.83,14.12,6.38.2,9.99-.75,12.89-1.37.05,3.43.09,6.87.14,10.3ZM219.19,249.52c-.05-3.92-.09-7.85-.14-11.77-.02-1.65.31-5.81-3.47-5.99-3.78-.17-3.46,4.1-3.44,5.72.05,5,.1,10.01.16,15.01.02,1.63-.28,4.4,3.52,4.73.88.08,1.71.15,2.48.18.59-.98.96-2.82.9-7.9Z"/>
            <path class="cls-32" d="M234.87,256.48c-.11-8.03,4.01-13.38,4.13-26.09.06-5.83-.41-9.92-2.4-14.65,4.74.3,9.48.62,14.19,1.01,1.81,3.53,2.48,8.91,2.42,14.03-.15,14.06-4.2,19.41-4.1,26.49.03,2.41,1.5,4.75,4.45,5.26,3.23.57,5.26-2.87,5.19-7.22-.21-12.66-.22-25.25-.05-37.91,4.82.4,9.63.8,14.45,1.21-.23,19.71.09,39.4.34,59.11-4.81-1.3-9.64-2.51-14.47-3.62-.06-4.58-.13-9.16-.19-13.75-.94,4.03-1.89,8-2.83,11.92-1.52.41-5.13.51-7.98-.07-9.21-1.88-13.06-8.48-13.15-15.72Z"/>
            <path class="cls-32" d="M275.34,218.79c4.72.41,9.44.83,14.15,1.27-.2,20.81.1,41.62.3,62.44-4.69-1.49-9.4-2.88-14.12-4.19-.25-19.84-.56-39.67-.34-59.52Z"/>
            <path class="cls-32" d="M291.12,220.22c10.88,1.01,21.77,2.17,32.61,3.54,0,5.29-.02,10.6-.02,15.81-5.06,10.7-10.29,21.21-15.83,31.67,5.29,1.43,10.57,2.94,15.83,4.54v19.17c-10.7-4.3-21.37-8.24-32.3-11.92-.04-4.34-.08-8.68-.12-13.02,5.63-9.35,10.7-18.99,15.73-28.67-5.33-.54-10.67-1.04-16.02-1.52-.05-5.33.04-12.57.11-19.59Z"/>
          </g>
          <g>
            <g>
              <path class="cls-22" d="M22.4,290.95c0-23.75-.02-47.49.08-71.24,10.54-1.62,21.11-3.07,31.69-4.36-.22,5.85-.31,13.37-.53,19.17-5.59.57-11.19,1.14-16.79,1.7-.09,2.41-.05,4.62-.07,6.91,4.67-.63,9.35-1.22,14.03-1.78-.04,5.05-.09,10.09-.13,15.14-3.91.79-7.81,1.62-11.71,2.49-.73-4.87-1.46-9.8-2.2-14.8-.06,13.72-.13,27.44-.19,41.16-4.74,1.78-9.47,3.65-14.18,5.62Z"/>
              <path class="cls-22" d="M54.75,279c.2-21.3.49-42.57,1.03-63.86,4.76-.58,9.47-1.13,14.17-1.66-.23,20.11-.56,40.21-.81,60.32.89-4.88,1.78-9.69,2.68-14.45,4.71-.94,9.42-1.82,14.14-2.63-.06,4.56-.13,9.12-.19,13.68-10.42,2.39-20.86,5.29-31.02,8.61Z"/>
              <path class="cls-22" d="M87.07,255.93c.73-10.38,4.21-20.81,4.55-30.73.21-6.13-.73-10.14-2.69-13.75,4.58-.47,9.25-.93,14.03-1.34,1.89,2.54,2.99,7.46,2.83,12.87-.28,10.01-3.9,19.85-4.47,29.69-.13,2.27,1.36,4.24,4.33,3.81,3.24-.47,5.38-4.21,5.43-8.13.31-12.96.05-25.94-.1-38.89,4.89-.38,9.78-.71,14.66-1,.11,18.28.02,36.54-.2,54.81-4.87.61-9.74,1.32-14.6,2.13.06-4.16.11-8.32.17-12.48-1.06,3.93-2.12,7.9-3.18,11.93-1.55.95-5.2,2.44-8.04,3.02-9.19,1.88-12.84-3.84-12.73-11.93Z"/>
              <path class="cls-22" d="M127.65,262.99c.21-18.23.3-36.44.2-54.67,10.5-.62,21.03-1.03,31.54-1.23-.02,4.87,0,12.25,0,18.74-5.62.12-11.24.33-16.87.61,0,2.71,0,5.26,0,7.39,4.5-.2,9.01-.35,13.51-.46-.01,5.14-.04,7.67-.06,11.09-3.75.1-7.49.24-11.23.41-.74-3.22-1.48-5.69-2.22-10.1-.04,7.2-.1,10.99-.14,16.28,5.64-.35,11.29-.6,16.93-.75-.01,3.41-.03,6.81-.04,10.22-10.53.33-21.17,1.17-31.62,2.47Z"/>
              <path class="cls-22" d="M161.05,207.06c4.87-.09,9.72-.15,14.58-.12,1.75,10.91,2.76,22.41,5.85,33.06-.04-11-.02-22-.03-33,4.85.07,9.72.17,14.59.32-.02,17.88.04,35.76.15,53.65-4.89-.3-9.78-.5-14.67-.61-1.99-6.9-3.97-13.76-5.94-20.61,0,6.84.01,13.68.02,20.52-4.89-.03-9.78.03-14.67.19.06-17.8.11-35.6.11-53.4Z"/>
              <path class="cls-22" d="M233.25,262.44c-8.39.93-16.84.7-22.07.17-8.22-.83-12.81-5.48-12.85-11.7-.05-7.02-.14-11.83-.11-25.03.02-11.67,4.55-18.91,12.78-18.55,3.17.15,6.34.32,9.5.51,8.23.42,12.67,8.74,12.55,20.39-.05,4.84-.04,8.32,0,11.17.17,12.46-8.75,13.99-12.83,14.12,6.38.2,9.99-.75,12.89-1.37.05,3.43.09,6.87.14,10.3ZM219.19,245.52c-.05-3.92-.12-6.84-.11-12.79,0-2.5.37-7.69-3.42-7.94-3.79-.25-3.49,4.97-3.5,7.5-.01,7.81.08,11.2.13,16.21.02,1.63-.28,4.4,3.52,4.73.88.08,1.71.15,2.48.18.59-.98.96-2.82.9-7.9Z"/>
              <path class="cls-22" d="M234.87,252.48c.51-9.59,3.75-19.69,4.27-28.88.35-6.18-.41-10.19-2.43-14.03,4.75.38,9.49.79,14.2,1.27,1.85,2.92,2.75,8.08,2.45,13.52-.52,9.36-3.97,19.63-4.24,28.92-.07,2.3,1.5,4.75,4.45,5.26,3.23.57,5.26-2.87,5.19-7.22-.3-13.22-.11-26.44.06-39.67,4.82.5,9.63,1,14.44,1.52-.23,20.19-.02,40.36.24,60.55-4.81-1.3-9.64-2.51-14.47-3.62-.06-4.58-.13-9.16-.19-13.75-.94,4.03-1.89,8-2.83,11.92-1.52.41-5.13.51-7.98-.07-9.21-1.88-13.06-8.48-13.15-15.72Z"/>
              <path class="cls-22" d="M275.43,213.4c4.72.51,9.43,1.04,14.14,1.6-.21,21.17.02,42.33.23,63.5-4.69-1.49-9.4-2.88-14.12-4.19-.25-20.31-.47-40.6-.24-60.91Z"/>
              <path class="cls-22" d="M291.2,215.2c10.87,1.27,21.74,2.75,32.54,4.51,0,5.26-.01,10.6-.02,15.85-5.06,10.71-10.29,21.21-15.83,31.68,5.29,1.43,10.57,2.94,15.83,4.54v19.17c-10.7-4.29-21.37-8.24-32.3-11.92-.04-4.34-.08-8.68-.12-13.02,5.63-9.35,10.7-18.99,15.73-28.67-5.33-.54-10.67-1.08-16.01-1.62,0-5.93.15-14.23.18-20.51Z"/>
            </g>
            <g>
              <path class="cls-24" d="M22.4,290.95c0-23.75-.02-47.49.08-71.24,10.54-1.62,21.11-3.07,31.69-4.36-.22,5.85-.31,13.37-.53,19.17-5.59.57-11.19,1.14-16.79,1.7-.09,2.41-.05,4.62-.07,6.91,4.67-.63,9.35-1.22,14.03-1.78-.04,5.05-.09,10.09-.13,15.14-3.91.79-7.81,1.62-11.71,2.49-.73-4.87-1.46-9.8-2.2-14.8-.06,13.72-.13,27.44-.19,41.16-4.74,1.78-9.47,3.65-14.18,5.62Z"/>
              <path class="cls-24" d="M54.75,279c.2-21.3.49-42.57,1.03-63.86,4.76-.58,9.47-1.13,14.17-1.66-.23,20.11-.56,40.21-.81,60.32.89-4.88,1.78-9.69,2.68-14.45,4.71-.94,9.42-1.82,14.14-2.63-.06,4.56-.13,9.12-.19,13.68-10.42,2.39-20.86,5.29-31.02,8.61Z"/>
              <path class="cls-24" d="M87.07,255.93c.73-10.38,4.21-20.81,4.55-30.73.21-6.13-.73-10.14-2.69-13.75,4.58-.47,9.25-.93,14.03-1.34,1.89,2.54,2.99,7.46,2.83,12.87-.28,10.01-3.9,19.85-4.47,29.69-.13,2.27,1.36,4.24,4.33,3.81,3.24-.47,5.38-4.21,5.43-8.13.31-12.96.05-25.94-.1-38.89,4.89-.38,9.78-.71,14.66-1,.11,18.28.02,36.54-.2,54.81-4.87.61-9.74,1.32-14.6,2.13.06-4.16.11-8.32.17-12.48-1.06,3.93-2.12,7.9-3.18,11.93-1.55.95-5.2,2.44-8.04,3.02-9.19,1.88-12.84-3.84-12.73-11.93Z"/>
              <path class="cls-24" d="M127.65,262.99c.21-18.23.3-36.44.2-54.67,10.5-.62,21.03-1.03,31.54-1.23-.02,4.87,0,12.25,0,18.74-5.62.12-11.24.33-16.87.61,0,2.71,0,5.26,0,7.39,4.5-.2,9.01-.35,13.51-.46-.01,5.14-.04,7.67-.06,11.09-3.75.1-7.49.24-11.23.41-.74-3.22-1.48-5.69-2.22-10.1-.04,7.2-.1,10.99-.14,16.28,5.64-.35,11.29-.6,16.93-.75-.01,3.41-.03,6.81-.04,10.22-10.53.33-21.17,1.17-31.62,2.47Z"/>
              <path class="cls-24" d="M161.05,207.06c4.87-.09,9.72-.15,14.58-.12,1.75,10.91,2.76,22.41,5.85,33.06-.04-11-.02-22-.03-33,4.85.07,9.72.17,14.59.32-.02,17.88.04,35.76.15,53.65-4.89-.3-9.78-.5-14.67-.61-1.99-6.9-3.97-13.76-5.94-20.61,0,6.84.01,13.68.02,20.52-4.89-.03-9.78.03-14.67.19.06-17.8.11-35.6.11-53.4Z"/>
              <path class="cls-24" d="M233.25,262.44c-8.39.93-16.84.7-22.07.17-8.22-.83-12.81-5.48-12.85-11.7-.05-7.02-.14-11.83-.11-25.03.02-11.67,4.55-18.91,12.78-18.55,3.17.15,6.34.32,9.5.51,8.23.42,12.67,8.74,12.55,20.39-.05,4.84-.04,8.32,0,11.17.17,12.46-8.75,13.99-12.83,14.12,6.38.2,9.99-.75,12.89-1.37.05,3.43.09,6.87.14,10.3ZM219.19,245.52c-.05-3.92-.12-6.84-.11-12.79,0-2.5.37-7.69-3.42-7.94-3.79-.25-3.49,4.97-3.5,7.5-.01,7.81.08,11.2.13,16.21.02,1.63-.28,4.4,3.52,4.73.88.08,1.71.15,2.48.18.59-.98.96-2.82.9-7.9Z"/>
              <path class="cls-24" d="M234.87,252.48c.51-9.59,3.75-19.69,4.27-28.88.35-6.18-.41-10.19-2.43-14.03,4.75.38,9.49.79,14.2,1.27,1.85,2.92,2.75,8.08,2.45,13.52-.52,9.36-3.97,19.63-4.24,28.92-.07,2.3,1.5,4.75,4.45,5.26,3.23.57,5.26-2.87,5.19-7.22-.3-13.22-.11-26.44.06-39.67,4.82.5,9.63,1,14.44,1.52-.23,20.19-.02,40.36.24,60.55-4.81-1.3-9.64-2.51-14.47-3.62-.06-4.58-.13-9.16-.19-13.75-.94,4.03-1.89,8-2.83,11.92-1.52.41-5.13.51-7.98-.07-9.21-1.88-13.06-8.48-13.15-15.72Z"/>
              <path class="cls-24" d="M275.43,213.4c4.72.51,9.43,1.04,14.14,1.6-.21,21.17.02,42.33.23,63.5-4.69-1.49-9.4-2.88-14.12-4.19-.25-20.31-.47-40.6-.24-60.91Z"/>
              <path class="cls-24" d="M291.2,215.2c10.87,1.27,21.74,2.75,32.54,4.51,0,5.26-.01,10.6-.02,15.85-5.06,10.71-10.29,21.21-15.83,31.68,5.29,1.43,10.57,2.94,15.83,4.54v19.17c-10.7-4.29-21.37-8.24-32.3-11.92-.04-4.34-.08-8.68-.12-13.02,5.63-9.35,10.7-18.99,15.73-28.67-5.33-.54-10.67-1.08-16.01-1.62,0-5.93.15-14.23.18-20.51Z"/>
            </g>
          </g>
        </g>
      </g>
    </g>
  </g>
</svg>